<?xml version="1.0" encoding="UTF-8" ?>
<svg xmlns="http://www.w3.org/2000/svg" version="1.0" width="76" height="76">
  <path style="stroke-width:3;stroke:#000000;" d="M21 7 L54 7 L54 14 L52 22 L49 29 L41 43 L35 43 L27 31 L23 22 L21 14 Z" />
  <path style="stroke-width:3;stroke:#000000;" d="M15 10 L8 10 L10 17 L14 23 L21 31" />
  <path style="stroke-width:3;stroke:#000000;" d="M60 10 L67 10 L65 17 L61 23 L54 31" />
  <path style="stroke-width:3;stroke:#000000;" d="M41 49 L41 52 L45 55 L51 57 L51 70 L25 70 L25 57 L31 55 L34 52 L34 49 Z" />
  <path style="stroke-width:3;stroke:#000000;" d="M30 61 L40 61" />
  <path style="stroke-width:3;stroke:#000000;" d="M30 65 L38 65" />
</svg>
